<svg width="125" height="28" viewBox="0 0 125 28" fill="none" xmlns="http://www.w3.org/2000/svg">
<path fill-rule="evenodd" clip-rule="evenodd" d="M8.24033 7.99013L15.8583 10.0985C16.0108 10.1395 16.2068 10.0721 16.2981 9.94597L19.0825 6.11521C19.1728 5.98421 19.1405 5.80521 19.0097 5.71452L15.0663 3.06218C14.9371 2.97564 14.7301 2.98004 14.6027 3.07158L8.19546 7.73747C8.06874 7.83217 8.08979 7.94606 8.24033 7.99013" fill="#D24708"/>
<path fill-rule="evenodd" clip-rule="evenodd" d="M14.6027 3.07158C14.7301 2.98004 14.9371 2.97564 15.0663 3.06218V3.06218L19.0097 5.71452C19.1405 5.80521 19.1728 5.98421 19.0825 6.11521V6.11521L16.2981 9.94597C16.2068 10.0721 16.0108 10.1395 15.8583 10.0985V10.0985L8.24033 7.99013C8.08979 7.94606 8.06874 7.83217 8.19546 7.73747V7.73747L14.6027 3.07158Z" fill="#FF850F"/>
<path fill-rule="evenodd" clip-rule="evenodd" d="M20.665 4.50068L21.0204 12.4202C21.0255 12.5774 21.1519 12.7423 21.299 12.792L25.7938 14.2639C25.9453 14.3089 26.1043 14.222 26.1507 14.0726L27.4468 9.48898C27.4882 9.33949 27.4204 9.14131 27.2937 9.04977L20.8906 4.37932C20.7617 4.28771 20.6604 4.34211 20.665 4.50068" fill="#D24708"/>
<path fill-rule="evenodd" clip-rule="evenodd" d="M20.665 4.50068L21.0204 12.4202C21.0255 12.5774 21.1519 12.7423 21.299 12.792L25.7938 14.2639C25.9453 14.3089 26.1043 14.222 26.1507 14.0726L27.4468 9.48898C27.4882 9.33949 27.4204 9.14131 27.2937 9.04977L20.8906 4.37932C20.7617 4.28771 20.6604 4.34211 20.665 4.50068V4.50068Z" fill="#FF850F"/>
<path fill-rule="evenodd" clip-rule="evenodd" d="M27.8094 15.2723L20.4094 18.0592C20.2635 18.1134 20.1446 18.2848 20.1446 18.4406L20.1387 23.182C20.1422 23.3402 20.272 23.467 20.4304 23.4626L25.1752 23.2826C25.3308 23.2767 25.4961 23.1508 25.5444 23.0023L27.9944 15.4514C28.0408 15.2991 27.9568 15.2186 27.8094 15.2723" fill="#D24708"/>
<path fill-rule="evenodd" clip-rule="evenodd" d="M27.8094 15.2723L20.4094 18.0592C20.2635 18.1134 20.1446 18.2848 20.1446 18.4406L20.1387 23.182C20.1422 23.3402 20.272 23.467 20.4304 23.4626L25.1752 23.2826C25.3308 23.2767 25.4961 23.1508 25.5444 23.0023L27.9944 15.4514C28.0408 15.2991 27.9568 15.2186 27.8094 15.2723V15.2723Z" fill="#FF850F"/>
<path fill-rule="evenodd" clip-rule="evenodd" d="M19.8041 25.4233L14.8767 19.225C14.7804 19.1026 14.58 19.0406 14.4325 19.0888L9.9349 20.5468C9.78498 20.5996 9.7063 20.7623 9.75867 20.9137L11.3938 25.3849C11.449 25.5303 11.6196 25.6495 11.7755 25.6495L19.6927 25.6543C19.8502 25.6517 19.9013 25.5492 19.8041 25.4233" fill="#D24708"/>
<path fill-rule="evenodd" clip-rule="evenodd" d="M19.8041 25.4233L14.8767 19.225C14.7804 19.1026 14.58 19.0406 14.4325 19.0888L9.9349 20.5468C9.78498 20.5996 9.7063 20.7623 9.75867 20.9137L11.3938 25.3849C11.449 25.5303 11.6196 25.6495 11.7755 25.6495L19.6927 25.6543C19.8502 25.6517 19.9013 25.5492 19.8041 25.4233V25.4233Z" fill="#FF850F"/>
<path fill-rule="evenodd" clip-rule="evenodd" d="M7.45985 20.8869L5.01705 13.3314C4.96808 13.1817 5.02835 12.9819 5.14972 12.8866L8.88428 9.94259C9.0103 9.84667 9.18938 9.87209 9.28539 9.99676L12.0582 13.838C12.1492 13.9635 12.1532 14.1728 12.066 14.3027L7.71266 20.9196C7.62362 21.0514 7.51036 21.0357 7.45985 20.8869" fill="#D24708"/>
<path fill-rule="evenodd" clip-rule="evenodd" d="M9.28539 9.99676L12.0582 13.838C12.1492 13.9635 12.1532 14.1728 12.066 14.3027L7.71266 20.9196C7.62362 21.0514 7.51036 21.0357 7.45985 20.8869L5.01705 13.3314C4.96808 13.1817 5.02835 12.9819 5.14972 12.8866L8.88428 9.94259C9.0103 9.84667 9.18938 9.87209 9.28539 9.99676Z" fill="#FF850F"/>
<path fill-rule="evenodd" clip-rule="evenodd" d="M43.7318 15.3077H37.2682V19.0923C37.2682 19.3488 37.3045 19.5565 37.3771 19.7154C37.4497 19.8745 37.5562 19.9976 37.6967 20.0847C37.8369 20.1719 38.0112 20.2334 38.2196 20.2692C38.4277 20.3053 38.6674 20.3284 38.9386 20.3385V21H34V20.3385C34.271 20.3284 34.5107 20.3053 34.719 20.2692C34.9272 20.2334 35.1014 20.1719 35.2419 20.0847C35.3822 19.9976 35.4888 19.8745 35.5615 19.7154C35.6341 19.5565 35.6704 19.3488 35.6704 19.0923V10.9076C35.6704 10.6514 35.6341 10.4437 35.5615 10.2846C35.4888 10.1257 35.3822 10.0026 35.2419 9.91532C35.1014 9.82835 34.9272 9.76678 34.719 9.73069C34.5107 9.69492 34.271 9.67181 34 9.66144V9H38.9386V9.66144C38.6674 9.67181 38.4277 9.69492 38.2196 9.73069C38.0112 9.76678 37.8369 9.82835 37.6967 9.91532C37.5562 10.0026 37.4497 10.1257 37.3771 10.2846C37.3045 10.4437 37.2682 10.6514 37.2682 10.9076V14.4615H43.7318V10.9076C43.7318 10.6514 43.6955 10.4437 43.6229 10.2846C43.5503 10.1257 43.4437 10.0026 43.3034 9.91532C43.1629 9.82835 42.9886 9.76678 42.7805 9.73069C42.5721 9.69492 42.3325 9.67181 42.0615 9.66144V9H47V9.66144C46.7288 9.67181 46.4892 9.69492 46.2811 9.73069C46.0727 9.76678 45.8984 9.82835 45.7581 9.91532C45.6176 10.0026 45.5112 10.1257 45.4385 10.2846C45.366 10.4437 45.3296 10.6514 45.3296 10.9076V19.0923C45.3296 19.3488 45.366 19.5565 45.4385 19.7154C45.5112 19.8745 45.6176 19.9976 45.7581 20.0847C45.8984 20.1719 46.0727 20.2334 46.2811 20.2692C46.4892 20.3053 46.7288 20.3284 47 20.3385V21H42.0615V20.3385C42.3325 20.3284 42.5721 20.3053 42.7805 20.2692C42.9886 20.2334 43.1629 20.1719 43.3034 20.0847C43.4437 19.9976 43.5503 19.8745 43.6229 19.7154C43.6955 19.5565 43.7318 19.3488 43.7318 19.0923V15.3077" fill="white"/>
<path fill-rule="evenodd" clip-rule="evenodd" d="M51.2899 20.0983C51.657 20.0983 51.9758 20.0305 52.2464 19.8946C52.5168 19.7589 52.7414 19.5673 52.9203 19.32C53.0989 19.0727 53.2342 18.7818 53.3261 18.4473C53.4178 18.1127 53.4638 17.7468 53.4638 17.3491C53.4638 16.8837 53.4008 16.4401 53.2754 16.0182C53.1497 15.5965 52.971 15.2305 52.7392 14.9201C52.5072 14.6099 52.2197 14.3625 51.8768 14.1782C51.5337 13.9942 51.145 13.9018 50.7102 13.9018C50.3526 13.9018 50.0362 13.9698 49.7608 14.1055C49.4855 14.2414 49.2584 14.4328 49.0798 14.68C48.9008 14.9273 48.7657 15.2182 48.6739 15.5528C48.582 15.8873 48.5363 16.2535 48.5363 16.6509C48.5363 17.1164 48.599 17.5601 48.7247 17.9818C48.8501 18.4036 49.0291 18.7698 49.2609 19.08C49.4928 19.3905 49.7802 19.6377 50.1232 19.8218C50.466 20.0061 50.8551 20.0983 51.2899 20.0983ZM50.8551 21C50.2849 21 49.7632 20.903 49.2899 20.7091C48.8164 20.5152 48.4106 20.2486 48.0725 19.9091C47.7342 19.5698 47.4711 19.165 47.2826 18.6946C47.0942 18.2243 47 17.708 47 17.1455C47 16.5055 47.111 15.9309 47.3333 15.4219C47.5555 14.9128 47.8551 14.4789 48.2319 14.12C48.6087 13.7614 49.0482 13.485 49.5508 13.291C50.053 13.097 50.5845 13 51.145 13C51.7149 13 52.2366 13.0946 52.7102 13.2836C53.1834 13.4727 53.5892 13.7396 53.9276 14.0837C54.2657 14.428 54.529 14.8353 54.7174 15.3055C54.9058 15.776 55 16.2923 55 16.8546C55 17.4946 54.8888 18.0691 54.6667 18.5782C54.4443 19.0873 54.145 19.5214 53.7681 19.8801C53.3913 20.2388 52.9516 20.5152 52.4493 20.7091C51.9468 20.903 51.4153 21 50.8551 21V21Z" fill="white"/>
<path fill-rule="evenodd" clip-rule="evenodd" d="M63.6524 14.4667C63.7909 14.2889 63.9588 14.1111 64.1568 13.9333C64.3543 13.7556 64.5769 13.5977 64.8242 13.4593C65.0711 13.3211 65.3332 13.21 65.6101 13.126C65.8868 13.0421 66.1686 13 66.4555 13C67.187 13 67.7629 13.2 68.1833 13.6C68.6033 14 68.8136 14.5507 68.8136 15.2519V19.5778C68.8136 19.7459 68.8432 19.8815 68.9025 19.9852C68.9618 20.0889 69.0434 20.168 69.1472 20.2222C69.251 20.2766 69.377 20.3186 69.5253 20.3481C69.6737 20.3778 69.8316 20.4025 70 20.4222V21H66.144V20.4222C66.3121 20.4025 66.4704 20.3778 66.6186 20.3481C66.7669 20.3186 66.8929 20.2766 66.9968 20.2222C67.1007 20.168 67.1821 20.0889 67.2414 19.9852C67.3009 19.8815 67.3305 19.7459 67.3305 19.5778V15.6371C67.3305 15.1433 67.2045 14.7804 66.9524 14.5482C66.7001 14.3163 66.3369 14.2 65.8623 14.2C65.5063 14.2 65.1305 14.2816 64.7351 14.4444C64.3396 14.6074 64.0084 14.8174 63.7415 15.0741V19.5778C63.7415 19.7459 63.7712 19.8815 63.8305 19.9852C63.8898 20.0889 63.9713 20.168 64.0751 20.2222C64.179 20.2766 64.3051 20.3186 64.4533 20.3481C64.6018 20.3778 64.7597 20.4025 64.9279 20.4222V21H61.072V20.4222C61.24 20.4025 61.3982 20.3778 61.5466 20.3481C61.6949 20.3186 61.821 20.2766 61.9248 20.2222C62.0286 20.168 62.1102 20.0889 62.1694 19.9852C62.2287 19.8815 62.2584 19.7459 62.2584 19.5778V15.6371C62.2584 15.1433 62.1324 14.7804 61.8802 14.5482C61.6281 14.3163 61.2648 14.2 60.7902 14.2C60.4343 14.2 60.0584 14.2816 59.6631 14.4444C59.2676 14.6074 58.9364 14.8174 58.6695 15.0741V19.5778C58.6695 19.7459 58.6992 19.8815 58.7584 19.9852C58.8178 20.0889 58.8993 20.168 59.0032 20.2222C59.107 20.2766 59.233 20.3186 59.3813 20.3481C59.5296 20.3778 59.6877 20.4025 59.8559 20.4222V21H56V20.4222C56.168 20.4025 56.3263 20.3778 56.4745 20.3481C56.6229 20.3186 56.7489 20.2766 56.8528 20.2222C56.9566 20.168 57.0381 20.0889 57.0974 19.9852C57.1568 19.8815 57.1864 19.7459 57.1864 19.5778V14.6149L56.0742 14.0963V13.7408L58.2246 13H58.7436L58.6695 14.4075C58.8078 14.2297 58.9735 14.057 59.1663 13.8889C59.3591 13.7211 59.5741 13.5704 59.8114 13.437C60.0487 13.3038 60.3008 13.1978 60.5678 13.1186C60.8347 13.0396 61.1065 13 61.3834 13C61.9667 13 62.4561 13.126 62.8517 13.3778C63.247 13.6297 63.5139 13.9927 63.6524 14.4667" fill="white"/>
<path fill-rule="evenodd" clip-rule="evenodd" d="M73.4426 13.9018C72.8689 13.9018 72.4049 14.0741 72.0512 14.4182C71.6973 14.7626 71.4822 15.211 71.4057 15.7637H75.4077C75.4077 15.5117 75.3669 15.2717 75.2858 15.0437C75.2045 14.816 75.0801 14.6171 74.9129 14.4473C74.7455 14.2778 74.5399 14.1443 74.2961 14.0473C74.0523 13.9505 73.7676 13.9018 73.4426 13.9018ZM73.8012 13C74.327 13 74.7885 13.0777 75.1855 13.2328C75.5822 13.3879 75.9145 13.6037 76.1824 13.8801C76.45 14.1564 76.6508 14.4836 76.7848 14.8619C76.9187 15.2401 76.9857 15.6473 76.9857 16.0836V16.491H71.3627C71.3627 17.4898 71.585 18.28 72.0297 18.8618C72.4743 19.4436 73.1701 19.7345 74.1168 19.7345C74.7192 19.7345 75.2213 19.6182 75.6229 19.3854C76.0246 19.1527 76.3448 18.8861 76.5841 18.5855L77 18.7746C76.9233 19.0364 76.8014 19.3007 76.6342 19.5673C76.4668 19.8341 76.2469 20.0741 75.9744 20.2872C75.7019 20.5006 75.3766 20.6727 74.999 20.8036C74.6211 20.9345 74.1789 21 73.6721 21C73.0983 21 72.5843 20.903 72.1301 20.7091C71.6758 20.5152 71.291 20.2486 70.9754 19.9091C70.6599 19.5698 70.4182 19.1723 70.251 18.7164C70.0836 18.2607 70 17.7709 70 17.2473C70 16.6073 70.0955 16.028 70.2869 15.5091C70.4781 14.9905 70.741 14.5444 71.0758 14.171C71.4104 13.7977 71.8121 13.5092 72.2807 13.3055C72.7492 13.1018 73.2562 13 73.8012 13V13Z" fill="white"/>
<path fill-rule="evenodd" clip-rule="evenodd" d="M80.924 21C80.3078 21 79.7598 20.9295 79.2802 20.7891C78.8003 20.6486 78.4038 20.4668 78.0909 20.2436L78 18.3091H78.6363C78.7978 18.9396 79.0605 19.4171 79.4241 19.7418C79.7877 20.0668 80.2877 20.2291 80.924 20.2291C81.4593 20.2291 81.8759 20.12 82.174 19.9018C82.4717 19.6837 82.6213 19.3614 82.6213 18.9345C82.6213 18.5855 82.4997 18.3262 82.2573 18.1563C82.0149 17.9869 81.6764 17.8389 81.2422 17.7128L80.1817 17.3927C79.8684 17.2959 79.5832 17.1891 79.3256 17.0728C79.0681 16.9563 78.8508 16.8159 78.6741 16.6509C78.4973 16.4862 78.361 16.285 78.2651 16.0473C78.169 15.8098 78.1211 15.5262 78.1211 15.1964C78.1211 14.5178 78.3735 13.9818 78.8787 13.5891C79.3837 13.1964 80.0655 13 80.924 13C81.4695 13 81.9517 13.0559 82.3711 13.1673C82.7897 13.2789 83.1762 13.4316 83.53 13.6255V15.4292H82.8933C82.7725 14.8378 82.5473 14.4135 82.2192 14.1564C81.891 13.8996 81.4442 13.771 80.8786 13.771C80.4643 13.771 80.1286 13.8632 79.8711 14.0473C79.6135 14.2316 79.4848 14.5127 79.4848 14.891C79.4848 15.2014 79.5756 15.4342 79.7575 15.5891C79.9393 15.7444 80.2219 15.8801 80.6059 15.9964L81.8028 16.3455C82.156 16.4425 82.4693 16.5564 82.7421 16.6874C83.0149 16.8182 83.2448 16.9735 83.4318 17.1527C83.6181 17.3323 83.76 17.5455 83.8558 17.7928C83.9517 18.0401 84 18.3382 84 18.6873C84 19.405 83.7194 19.9698 83.1591 20.3818C82.5979 20.7941 81.8532 21 80.924 21" fill="white"/>
<path fill-rule="evenodd" clip-rule="evenodd" d="M85 20C85 19.723 85.0969 19.487 85.292 19.2922C85.4871 19.0974 85.7224 19 85.9997 19C86.277 19 86.5129 19.0974 86.708 19.2922C86.9024 19.487 87 19.723 87 20C87 20.2771 86.9024 20.513 86.708 20.7078C86.5129 20.9026 86.277 21 85.9997 21C85.7224 21 85.4871 20.9026 85.292 20.7078C85.0969 20.513 85 20.2771 85 20" fill="white"/>
<path fill-rule="evenodd" clip-rule="evenodd" d="M89.3797 16.6945C89.3797 17.6353 89.6097 18.3771 90.0696 18.92C90.5303 19.4632 91.2105 19.7345 92.1111 19.7345C92.7145 19.7345 93.218 19.6182 93.6203 19.3854C94.0225 19.1527 94.3441 18.8861 94.5837 18.5855L95 18.7746C94.9238 19.0364 94.8011 19.3007 94.634 19.5673C94.4661 19.8341 94.2458 20.0741 93.9722 20.2872C93.6994 20.5006 93.3733 20.6727 92.9955 20.8036C92.6161 20.9345 92.1732 21 91.6653 21C91.0427 21 90.5014 20.8909 90.0415 20.6727C89.5816 20.4546 89.2001 20.1709 88.8984 19.8218C88.5967 19.4727 88.3712 19.0727 88.2226 18.6218C88.0739 18.1709 88 17.7128 88 17.2473C88 16.6073 88.1028 16.0255 88.3091 15.5019C88.5154 14.9783 88.8023 14.5299 89.1712 14.1564C89.5402 13.7832 89.9787 13.497 90.4866 13.2982C90.9946 13.0996 91.5455 13 92.14 13C92.9829 13 93.6439 13.1796 94.1238 13.5382C94.6022 13.8971 94.8425 14.348 94.8425 14.891C94.8425 15.1142 94.7893 15.3055 94.6843 15.4655C94.5785 15.6255 94.4447 15.7444 94.2813 15.8218H93.3038V15.2256C93.3038 14.7698 93.1914 14.4255 92.9666 14.1928C92.7411 13.96 92.3699 13.8437 91.8523 13.8437C91.4974 13.8437 91.1669 13.9068 90.8608 14.0328C90.5539 14.1589 90.2929 14.3433 90.077 14.5855C89.8618 14.828 89.691 15.1261 89.5668 15.48C89.4426 15.8341 89.3797 16.2389 89.3797 16.6945" fill="white"/>
<path fill-rule="evenodd" clip-rule="evenodd" d="M100.29 20.0983C100.656 20.0983 100.975 20.0305 101.246 19.8946C101.517 19.7589 101.741 19.5673 101.92 19.32C102.099 19.0727 102.234 18.7818 102.326 18.4473C102.417 18.1127 102.464 17.7468 102.464 17.3491C102.464 16.8837 102.401 16.4401 102.275 16.0182C102.15 15.5965 101.971 15.2305 101.739 14.9201C101.507 14.6099 101.219 14.3625 100.876 14.1782C100.533 13.9942 100.145 13.9018 99.7096 13.9018C99.3525 13.9018 99.0364 13.9698 98.7606 14.1055C98.4855 14.2414 98.2581 14.4328 98.0792 14.68C97.9003 14.9273 97.7654 15.2182 97.6737 15.5528C97.582 15.8873 97.5357 16.2535 97.5357 16.6509C97.5357 17.1164 97.5991 17.5601 97.7244 17.9818C97.8496 18.4036 98.0285 18.7698 98.2604 19.08C98.493 19.3905 98.78 19.6377 99.1229 19.8218C99.4658 20.0061 99.855 20.0983 100.29 20.0983ZM99.855 21C99.2847 21 98.7628 20.903 98.2894 20.7091C97.816 20.5152 97.4105 20.2486 97.072 19.9091C96.7343 19.5698 96.4712 19.165 96.2825 18.6946C96.0939 18.2243 96 17.708 96 17.1455C96 16.5055 96.1111 15.9309 96.3332 15.4219C96.5554 14.9128 96.8551 14.4789 97.2316 14.12C97.6088 13.7614 98.0479 13.485 98.5504 13.291C99.0528 13.097 99.5844 13 100.145 13C100.715 13 101.236 13.0946 101.71 13.2836C102.183 13.4727 102.589 13.7396 102.927 14.0837C103.266 14.428 103.529 14.8353 103.717 15.3055C103.905 15.776 104 16.2923 104 16.8546C104 17.4946 103.889 18.0691 103.667 18.5782C103.444 19.0873 103.145 19.5214 102.768 19.8801C102.391 20.2388 101.951 20.5152 101.449 20.7091C100.946 20.903 100.415 21 99.855 21V21Z" fill="white"/>
<path fill-rule="evenodd" clip-rule="evenodd" d="M111.653 14.4667C111.791 14.2889 111.959 14.1111 112.157 13.9333C112.355 13.7556 112.577 13.5977 112.824 13.4593C113.072 13.3211 113.333 13.21 113.61 13.126C113.887 13.0421 114.169 13 114.456 13C115.187 13 115.763 13.2 116.184 13.6C116.604 14 116.814 14.5507 116.814 15.2519V19.5778C116.814 19.7459 116.843 19.8815 116.903 19.9852C116.962 20.0889 117.044 20.168 117.148 20.2222C117.252 20.2766 117.377 20.3186 117.525 20.3481C117.674 20.3778 117.832 20.4025 118 20.4222V21H114.144V20.4222C114.312 20.4025 114.471 20.3778 114.619 20.3481C114.767 20.3186 114.893 20.2766 114.997 20.2222C115.101 20.168 115.183 20.0889 115.242 19.9852C115.301 19.8815 115.331 19.7459 115.331 19.5778V15.6371C115.331 15.1433 115.205 14.7804 114.952 14.5482C114.7 14.3163 114.337 14.2 113.863 14.2C113.507 14.2 113.13 14.2816 112.735 14.4444C112.34 14.6074 112.009 14.8174 111.742 15.0741V19.5778C111.742 19.7459 111.772 19.8815 111.83 19.9852C111.89 20.0889 111.972 20.168 112.075 20.2222C112.179 20.2766 112.305 20.3186 112.454 20.3481C112.602 20.3778 112.76 20.4025 112.928 20.4222V21H109.072V20.4222C109.24 20.4025 109.398 20.3778 109.547 20.3481C109.695 20.3186 109.821 20.2766 109.925 20.2222C110.028 20.168 110.11 20.0889 110.17 19.9852C110.229 19.8815 110.259 19.7459 110.259 19.5778V15.6371C110.259 15.1433 110.132 14.7804 109.88 14.5482C109.628 14.3163 109.265 14.2 108.79 14.2C108.435 14.2 108.059 14.2816 107.663 14.4444C107.268 14.6074 106.936 14.8174 106.669 15.0741V19.5778C106.669 19.7459 106.699 19.8815 106.759 19.9852C106.818 20.0889 106.9 20.168 107.004 20.2222C107.107 20.2766 107.233 20.3186 107.381 20.3481C107.53 20.3778 107.688 20.4025 107.856 20.4222V21H104V20.4222C104.168 20.4025 104.327 20.3778 104.475 20.3481C104.623 20.3186 104.749 20.2766 104.853 20.2222C104.957 20.168 105.038 20.0889 105.098 19.9852C105.157 19.8815 105.186 19.7459 105.186 19.5778V14.6149L104.074 14.0963V13.7408L106.225 13H106.743L106.669 14.4075C106.808 14.2297 106.974 14.057 107.166 13.8889C107.359 13.7211 107.574 13.5704 107.811 13.437C108.049 13.3038 108.301 13.1978 108.568 13.1186C108.835 13.0396 109.107 13 109.384 13C109.967 13 110.456 13.126 110.852 13.3778C111.247 13.6297 111.514 13.9927 111.653 14.4667" fill="white"/>
<path fill-rule="evenodd" clip-rule="evenodd" d="M119 13V13.1192H118.585V14H118.415V13.1192H118V13H119" fill="white"/>
<path fill-rule="evenodd" clip-rule="evenodd" d="M119 13H119.203L119.502 13.8456L119.799 13H120V14H119.866V13.4099C119.866 13.3894 119.866 13.3555 119.867 13.3084C119.868 13.2612 119.868 13.2106 119.868 13.1566L119.571 14H119.431L119.131 13.1566V13.1871C119.131 13.2117 119.132 13.2491 119.133 13.2992C119.134 13.3494 119.135 13.3863 119.135 13.4099V14H119V13" fill="white"/>
</svg>
